<?xml version="1.0" encoding="utf-8"?>
<!-- Generator: Adobe Illustrator 24.0.0, SVG Export Plug-In . SVG Version: 6.00 Build 0)  -->
<svg version="1.1" id="Layer_1" xmlns="http://www.w3.org/2000/svg" xmlns:xlink="http://www.w3.org/1999/xlink" x="0px" y="0px"
	 viewBox="0 0 1920 1080" style="enable-background:new 0 0 1920 1080;" xml:space="preserve">
<style type="text/css">
	.st0{fill:url(#SVGID_1_);}
	.st1{fill:#665502;}
	.st2{fill:none;}
	.st3{font-family:'Roboto-Bold';}
	.st4{font-size:60px;}
	.st5{letter-spacing:6;}
</style>
<g>
	<g>
		<linearGradient id="SVGID_1_" gradientUnits="userSpaceOnUse" x1="960" y1="839.9994" x2="960" y2="240.0006">
			<stop  offset="0" style="stop-color:#FFFFFF"/>
			<stop  offset="0.018" style="stop-color:#DEE9DD"/>
			<stop  offset="0.0459" style="stop-color:#B2CCAF"/>
			<stop  offset="0.0765" style="stop-color:#8AB185"/>
			<stop  offset="0.1091" style="stop-color:#679A61"/>
			<stop  offset="0.1441" style="stop-color:#4A8643"/>
			<stop  offset="0.1824" style="stop-color:#32762A"/>
			<stop  offset="0.2252" style="stop-color:#206A17"/>
			<stop  offset="0.2752" style="stop-color:#13610A"/>
			<stop  offset="0.3389" style="stop-color:#0B5C02"/>
			<stop  offset="0.463" style="stop-color:#095B00"/>
			<stop  offset="0.5082" style="stop-color:#095B00"/>
			<stop  offset="0.7831" style="stop-color:#095B00"/>
		</linearGradient>
		<path class="st0" d="M927.05,840c-0.02-27.33-0.04-54.66-0.06-82c0-5.57-0.01-5.57-5.35-3.83
			c-47.67,15.51-96.41,24.61-146.69,24.21c-30.87-0.24-61.11-4.22-89.78-16.53c-3.51-1.51-6.9-3.3-10.33-5
			c-1.02-0.51-1.97-1.18-3.84-2.32c60.91-21.27,119.35-45.85,170.89-84.61c-38.56,3.36-76.95,5.45-115.53-7.16
			c52-29.45,100.25-62.27,139.03-107.51c-29.8,11.93-60.79,15.05-94.14,13.51c44.21-31.23,85.17-64.15,121.33-104.39
			c-27.25,1.6-53.52,4.14-80.84-2.33c40.88-25.26,76.17-55.28,107.06-90.75c-23.81,4.58-47.45,9.5-72.86,11.68
			c45.72-41.75,84.93-87.32,113.03-142.97c29.64,54.94,67.88,101.89,115.24,143c-25.44-2.3-49.11-6.6-72.91-11.71
			c14.48,18.47,31.01,34.81,48.83,49.89c17.81,15.07,36.95,28.29,57.96,40.76c-13.93,3.48-26.97,4.23-40.1,4.31
			c-13.15,0.08-26.25-0.83-40.59-2.04c35.64,39.95,75.42,73.51,119.24,104.49c-33.13,1.82-63.99-1.92-93.88-13.46
			c39.98,44.52,88.39,77.85,140.91,107.46c-39.21,12.63-78.25,10.66-117.56,7.19c52.51,38.13,111.35,63.23,172.9,84.6
			c-6.54,4.21-13.06,6.96-19.66,9.48c-32.15,12.27-65.66,15.29-99.72,14.27c-44.78-1.34-88.21-10.06-130.71-23.89
			c-5.82-1.89-5.82-1.92-5.82,4.16c-0.02,27.17-0.03,54.33-0.05,81.5C971.05,840,949.05,840,927.05,840z"/>
	</g>
	<rect x="925.87" y="751.5" class="st1" width="66.26" height="87.5"/>
</g>
<path id="SVGID_x5F_2_x5F_" class="st2" d="M1159.36,290.45c146.99,106.34,176.89,315.92,66.78,468.1
	c-110.1,152.18-318.51,189.34-465.5,83s-176.89-315.92-66.78-468.1S1012.37,184.11,1159.36,290.45z"/>
<text><textPath  xlink:href="#SVGID_x5F_2_x5F_" startOffset="45946.8594%">
<tspan  class="st3" style="fill:#808080; font-size:80.447px; letter-spacing:112.04;">Α.Σ.Δ.Σ. ΔΑΣΟΥΣ ΚΑΤΟΥΝΑΣ</tspan></textPath>
</text>
<text transform="matrix(1 0 0 1 620.498 932.6523)" class="st1 st3 st4 st5">ΕΤΟΣ ΙΔΡΥΣΗΣ 1953</text>
</svg>
